<svg width="20" height="21" viewBox="0 0 20 21" fill="none" xmlns="http://www.w3.org/2000/svg">
<path d="M18.6586 5.60534C17.7643 4.03477 16.5514 2.79135 15.0194 1.87479C13.4871 0.958185 11.8144 0.5 9.99991 0.5C8.18569 0.5 6.51238 0.958325 4.98046 1.87479C3.4483 2.7913 2.23539 4.03477 1.34116 5.60534C0.447068 7.17587 0 8.89089 0 10.7504C0 12.984 0.635737 14.9926 1.90753 16.7766C3.17919 18.5607 4.82198 19.7952 6.83577 20.4803C7.07018 20.5249 7.24371 20.4936 7.35654 20.387C7.46941 20.2804 7.52578 20.1467 7.52578 19.9868C7.52578 19.9601 7.52354 19.7199 7.51921 19.266C7.5151 18.8702 7.51291 18.4743 7.51264 18.0783L7.21315 18.1315C7.0222 18.1673 6.78132 18.1825 6.49049 18.1782C6.19981 18.174 5.89804 18.1428 5.58559 18.0847C5.27302 18.0272 4.98228 17.8937 4.71317 17.6846C4.44419 17.4755 4.25324 17.2018 4.14036 16.8639L4.01016 16.5568C3.92337 16.3523 3.78674 16.1251 3.60008 15.8761C3.41342 15.6269 3.22466 15.458 3.03371 15.369L2.94254 15.3021C2.8818 15.2577 2.82543 15.204 2.7733 15.1418C2.72122 15.0796 2.68223 15.0173 2.65619 14.955C2.6301 14.8926 2.65172 14.8414 2.72127 14.8012C2.79081 14.761 2.9165 14.7416 3.09888 14.7416L3.35919 14.7814C3.53281 14.8171 3.74757 14.9236 4.00373 15.1017C4.25976 15.2796 4.47023 15.5109 4.63518 15.7956C4.83493 16.1605 5.07559 16.4385 5.35784 16.6299C5.63986 16.8212 5.92421 16.9167 6.21061 16.9167C6.49702 16.9167 6.74438 16.8945 6.95279 16.8502C7.16098 16.8057 7.35631 16.7388 7.53868 16.6499C7.61681 16.0535 7.82951 15.5953 8.17661 15.275C7.68189 15.2217 7.2371 15.1414 6.84202 15.0347C6.44717 14.9278 6.03914 14.7544 5.6182 14.5139C5.19704 14.2738 4.84766 13.9756 4.56997 13.6198C4.29223 13.2639 4.06429 12.7966 3.88648 12.2183C3.70857 11.6399 3.6196 10.9726 3.6196 10.2163C3.6196 9.13941 3.96255 8.22304 4.64832 7.46665C4.32707 6.65705 4.3574 5.74947 4.73939 4.744C4.99113 4.66382 5.36445 4.72399 5.85918 4.92412C6.354 5.12434 6.71628 5.29587 6.94641 5.43808C7.17653 5.58024 7.36092 5.70071 7.49983 5.79842C8.30727 5.56715 9.14052 5.45149 9.99982 5.45149C10.8591 5.45149 11.6925 5.56715 12.5 5.79842L12.9948 5.47823C13.3332 5.26459 13.7327 5.06881 14.1925 4.89083C14.6526 4.71295 15.0044 4.66396 15.2475 4.74414C15.638 5.74966 15.6728 6.65719 15.3515 7.46679C16.0372 8.22318 16.3803 9.13978 16.3803 10.2164C16.3803 10.9727 16.291 11.6421 16.1133 12.225C15.9355 12.808 15.7056 13.2749 15.4236 13.6265C15.1412 13.9781 14.7896 14.274 14.3687 14.5141C13.9476 14.7544 13.5395 14.9278 13.1446 15.0347C12.7496 15.1415 12.3048 15.2219 11.8101 15.2752C12.2613 15.6755 12.4869 16.3073 12.4869 17.1704V19.9864C12.4869 20.1464 12.5412 20.2799 12.6498 20.3867C12.7583 20.4932 12.9297 20.5246 13.1641 20.4799C15.1782 19.7949 16.8209 18.5603 18.0926 16.7762C19.364 14.9922 20 12.9837 20 10.75C19.9995 8.89075 19.5522 7.17587 18.6586 5.60534Z" fill="#D1D1D1"/>
</svg>
