<svg width="30" height="30" viewBox="0 0 30 30" fill="none" xmlns="http://www.w3.org/2000/svg">
<g clip-path="url(#clip0_23_22)">
<path d="M14.7156 2.74091C8.01709 2.74091 2.5806 8.1774 2.5806 14.8759C2.5806 21.5745 8.01709 27.011 14.7156 27.011C21.4142 27.011 26.8507 21.5745 26.8507 14.8759C26.8507 8.1774 21.4142 2.74091 14.7156 2.74091ZM11.427 20.0819L7.07056 15.7254C6.59729 15.2521 6.59729 14.4876 7.07056 14.0143C7.54382 13.5411 8.30833 13.5411 8.7816 14.0143L12.2886 17.5092L20.6375 9.16034C21.1108 8.68707 21.8753 8.68707 22.3486 9.16034C22.8218 9.6336 22.8218 10.3981 22.3486 10.8714L13.1381 20.0819C12.6769 20.5551 11.9003 20.5551 11.427 20.0819Z" fill="black"/>
</g>
<defs>
<clipPath id="clip0_23_22">
<rect width="29.1241" height="29.1241" fill="white" transform="translate(0.153595 0.313843)"/>
</clipPath>
</defs>
</svg>
