<svg width="11" height="15" viewBox="0 0 11 15" fill="none" xmlns="http://www.w3.org/2000/svg">
<path d="M5.16667 0.833344L5.16666 3.55442C5.16658 3.97849 5.1665 4.39061 5.2122 4.73053C5.26372 5.11373 5.38924 5.55101 5.75246 5.91422C6.11567 6.27744 6.55295 6.40296 6.93615 6.45448C7.27606 6.50018 7.68819 6.5001 8.11225 6.50002L10.8333 6.50001V10.1667C10.8333 12.0523 10.8333 12.9951 10.2476 13.5809C9.66177 14.1667 8.71896 14.1667 6.83334 14.1667H4.16667C2.28105 14.1667 1.33824 14.1667 0.752458 13.5809C0.166672 12.9951 0.166672 12.0523 0.166672 10.1667V4.83334C0.166672 2.94773 0.166672 2.00492 0.752458 1.41913C1.33824 0.833344 2.28105 0.833344 4.16667 0.833344H5.16667Z" fill="white"/>
<path d="M7.16667 0.859318V3.50001C7.16667 3.99968 7.1688 4.27384 7.19437 4.46403L7.19536 4.47132L7.20265 4.47232C7.39284 4.49789 7.667 4.50001 8.16667 4.50001H10.8074C10.7924 4.3913 10.7689 4.29818 10.7318 4.20872C10.6304 3.96369 10.4377 3.771 10.0523 3.38564L8.28105 1.61439C7.89568 1.22902 7.70299 1.03633 7.45797 0.934837C7.3685 0.897782 7.27538 0.874255 7.16667 0.859318Z" fill="white"/>
</svg>
